# xmcd
# Track frame offsets:
# 150
# 21490
# 36377
# 57562
# 83567
# 106520
# 123160
# 157465
# 181717
# 203650
# 247457
#
# Disc length: 3706 seconds
# Revision: 0
# Processed by: cddbd v1.5.1PL0 Copyright (c) Steve Scherf et al.
# Submitted via: VisiTrax 2.9.10.228 - For more info visit www.synapsa.com
#
DISCID=960e780b
DTITLE=The Business - Live in Dublin
DYEAR=2005
DGENRE=Irish-Blues
TTITLE0=Mayall - Not at Home
TTITLE1=Brown - I Go Crazy
TTITLE2=Williams - Oh Pretty Woman
TTITLE3=R. Hawkins - The Thrill is Gone
TTITLE4=J. McDaniels - You Don't Love Me
TTITLE5=Rogers - Walkin'
TTITLE6=Hendrix - Red House
TTITLE7=Lenoir - Talk to Your Daughter
TTITLE8=Green - Rollin' Man
TTITLE9=Green - Evil Woman
TTITLE10=Tad. Arr The Business - Sweet Home Chiaco
EXTD=Recorded live in Temp[le Bar, Dublin
EXTT0=
EXTT1=
EXTT2=
EXTT3=
EXTT4=
EXTT5=
EXTT6=
EXTT7=
EXTT8=
EXTT9=
EXTT10=
PLAYORDER=
